<svg xmlns="http://www.w3.org/2000/svg" viewBox="0 0 128 128">
  <defs>
    <linearGradient id="sg" x1="0%" y1="0%" x2="100%" y2="100%">
      <stop offset="0%" style="stop-color:#00c2ff" />
      <stop offset="100%" style="stop-color:#5b2dff" />
    </linearGradient>
    <filter id="g"><feGaussianBlur stdDeviation="1.5" result="b"/><feMerge><feMergeNode in="b"/><feMergeNode in="SourceGraphic"/></feMerge></filter>
  </defs>
  <!-- Compact shield -->
  <path d="M64 8 L112 32 L112 72 C112 100 92 118 64 128 C36 118 16 100 16 72 L16 32 Z" 
        fill="url(#sg)" opacity="0.95" filter="url(#g)"/>
  <path d="M64 22 L100 42 L100 70 C100 92 84 106 64 114 C44 106 28 92 28 70 L28 42 Z" 
        fill="#0a0a1a" opacity="0.9"/>
  <!-- O + eye -->
  <circle cx="64" cy="62" r="18" fill="none" stroke="#00c2ff" stroke-width="4" filter="url(#g)"/>
  <circle cx="64" cy="62" r="6" fill="#00c2ff" opacity="0.9"/>
  <circle cx="64" cy="62" r="2.5" fill="#fff"/>
  <!-- Crosshair -->
  <line x1="64" y1="38" x2="64" y2="48" stroke="#00e5ff" stroke-width="1.5" opacity="0.5"/>
  <line x1="64" y1="76" x2="64" y2="86" stroke="#00e5ff" stroke-width="1.5" opacity="0.5"/>
  <line x1="40" y1="62" x2="50" y2="62" stroke="#00e5ff" stroke-width="1.5" opacity="0.5"/>
  <line x1="78" y1="62" x2="88" y2="62" stroke="#00e5ff" stroke-width="1.5" opacity="0.5"/>
  <!-- Text -->
  <text x="64" y="100" text-anchor="middle" font-family="'Segoe UI',Arial,sans-serif" 
        font-size="11" font-weight="700" letter-spacing="2" fill="#00c2ff">OD</text>
</svg>
